<svg xmlns="http://www.w3.org/2000/svg" xmlns:xlink="http://www.w3.org/1999/xlink" width="20" height="20" viewBox="0 0 20 20">
  <defs>
    <clipPath id="clip-path">
      <rect id="Rectangle_1962" data-name="Rectangle 1962" width="20" height="20" transform="translate(375 1086)" fill="#75c1a8" stroke="#707070" stroke-width="1"/>
    </clipPath>
  </defs>
  <g id="icon-leftt" transform="translate(-375 -1086)" clip-path="url(#clip-path)">
    <path id="Share" d="M1.333,19.333a.684.684,0,0,1-.153-.017.668.668,0,0,1-.514-.649c0-6.058.766-11.1,10-11.326V2.667a.667.667,0,0,1,1.119-.489l8.667,8a.667.667,0,0,1,0,.979l-8.667,8a.667.667,0,0,1-1.119-.49V14.008c-6.334.152-7.5,2.488-8.737,4.957a.666.666,0,0,1-.6.368Zm10-6.667a.666.666,0,0,1,.667.667v3.81l7.017-6.477L12,4.19V8a.666.666,0,0,1-.667.667c-7.365,0-8.951,2.848-9.262,7.4C3.452,14.21,5.805,12.667,11.333,12.667Z" transform="translate(374.333 1085.333)" fill="#75c1a8"/>
  </g>
</svg>
