<svg xmlns="http://www.w3.org/2000/svg" xmlns:xlink="http://www.w3.org/1999/xlink" width="35" height="35" viewBox="0 0 35 35">
  <defs>
    <clipPath id="clip-path">
      <rect id="Rectangle_207" data-name="Rectangle 207" width="35" height="35" rx="15" transform="translate(1289 4820)" fill="#fff" stroke="#707070" stroke-width="1"/>
    </clipPath>
  </defs>
  <g id="icon-face" transform="translate(-1289 -4820)" clip-path="url(#clip-path)">
    <g id="Icons" transform="translate(1289 4820)">
      <g id="Social-Media-Collection">
        <g id="Facebook">
          <path id="Fill-183" d="M22.045,11.655H20.4c-1.292,0-1.542.614-1.542,1.514v1.986h3.081l-.4,3.112h-2.68V26.25H15.643V18.268H12.957V15.156h2.686V12.862a3.748,3.748,0,0,1,4-4.113,21.954,21.954,0,0,1,2.4.123ZM17.5,0A17.5,17.5,0,1,0,35,17.5,17.5,17.5,0,0,0,17.5,0Z" fill="#3b5998" fill-rule="evenodd"/>
        </g>
      </g>
    </g>
  </g>
</svg>
