<svg xmlns="http://www.w3.org/2000/svg" xmlns:xlink="http://www.w3.org/1999/xlink" width="20" height="20" viewBox="0 0 20 20">
  <defs>
    <clipPath id="clip-path">
      <rect id="Rectangle_1968" data-name="Rectangle 1968" width="20" height="20" transform="translate(720 982)" fill="#75c1a8" stroke="#707070" stroke-width="1"/>
    </clipPath>
  </defs>
  <g id="icon-HLV" transform="translate(-720 -982)" clip-path="url(#clip-path)">
    <g id="scroll" transform="translate(720 982)">
      <path id="Path_479" data-name="Path 479" d="M14.86.176a.586.586,0,0,0-.921.109A40.169,40.169,0,0,1,7.928,7.929a7.663,7.663,0,0,1-5.684,2.612.586.586,0,0,0-.544.8l.537,1.342c-.637.436-1.292.857-1.952,1.253a.586.586,0,0,0-.113.917l4.972,4.972,0,0a.586.586,0,0,0,.913-.117A38.879,38.879,0,0,1,11.4,12.751l.526,1.579a.586.586,0,1,0,1.112-.371l-.458-1.374,1.374.458a.586.586,0,1,0,.371-1.112l-1.574-.525a7.556,7.556,0,0,1,5-1.947.586.586,0,0,0,.544-.8l-.537-1.342c.637-.436,1.292-.857,1.952-1.253a.586.586,0,0,0,.113-.917ZM11.243,11.243h0a1.758,1.758,0,1,1,0-2.486A1.76,1.76,0,0,1,11.242,11.244ZM7.079,10.211a2.921,2.921,0,0,0,2.575,2.7,40.05,40.05,0,0,0-3.983,5.213L3.091,11.67a8.725,8.725,0,0,0,3.988-1.458ZM2.682,13.8l1.272,3.18L1.526,14.553Q2.11,14.187,2.682,13.8ZM12.92,9.793a2.921,2.921,0,0,0-2.579-2.7,41,41,0,0,0,3.987-5.214l2.581,6.452A8.748,8.748,0,0,0,12.92,9.793Zm4.4-3.594-1.272-3.18,2.428,2.428Q17.89,5.813,17.318,6.2Z" transform="translate(0 0)" fill="#75c1a8"/>
    </g>
  </g>
</svg>
