<svg xmlns="http://www.w3.org/2000/svg" xmlns:xlink="http://www.w3.org/1999/xlink" width="16" height="16" viewBox="0 0 16 16">
  <defs>
    <clipPath id="clip-path">
      <rect id="Rectangle_2047" data-name="Rectangle 2047" width="16" height="16" transform="translate(1155 822)" fill="#191919" stroke="#707070" stroke-width="1"/>
    </clipPath>
  </defs>
  <g id="icon-phone" transform="translate(-1155 -822)" opacity="0.7" clip-path="url(#clip-path)">
    <path id="phone" d="M16.887,12.822a1.307,1.307,0,0,0-.665-.827L12.81,10.226a1.3,1.3,0,0,0-1.655.378l-.552.756a.2.2,0,0,1-.257.058,10.012,10.012,0,0,1-2.207-1.7,10.015,10.015,0,0,1-1.7-2.207A.2.2,0,0,1,6.5,7.253L7.25,6.7a1.3,1.3,0,0,0,.378-1.655L5.87,1.637a1.3,1.3,0,0,0-1.881-.485L1.846,2.586A2.063,2.063,0,0,0,.93,4.431a10.382,10.382,0,0,0,.245,1.812A14.8,14.8,0,0,0,5.112,12.75a14.689,14.689,0,0,0,6.507,3.928,10.39,10.39,0,0,0,1.812.245h.138a2.063,2.063,0,0,0,1.7-.907L16.7,13.873a1.3,1.3,0,0,0,.185-1.051Zm-1.1.436L14.363,15.4a.965.965,0,0,1-.861.422,9.535,9.535,0,0,1-1.608-.212,13.608,13.608,0,0,1-6-3.649,13.723,13.723,0,0,1-3.646-6,9.527,9.527,0,0,1-.215-1.608A.957.957,0,0,1,2.456,3.5L4.6,2.07a.2.2,0,0,1,.11-.033h.052a.2.2,0,0,1,.127.1L6.654,5.551A.2.2,0,0,1,6.6,5.8l-.753.552A1.3,1.3,0,0,0,5.49,8.047a11.182,11.182,0,0,0,1.876,2.43A11.176,11.176,0,0,0,9.8,12.353,1.3,1.3,0,0,0,11.486,12l.552-.756a.2.2,0,0,1,.254-.058L15.7,12.952a.2.2,0,0,1,.074.29Z" transform="translate(1154.074 821.072)" fill="#191919"/>
  </g>
</svg>
