<svg xmlns="http://www.w3.org/2000/svg" xmlns:xlink="http://www.w3.org/1999/xlink" width="16" height="16" viewBox="0 0 16 16">
  <defs>
    <clipPath id="clip-path">
      <rect id="Rectangle_2049" data-name="Rectangle 2049" width="16" height="16" transform="translate(1155 874)" fill="#191919" stroke="#707070" stroke-width="1"/>
    </clipPath>
  </defs>
  <g id="icon-email" transform="translate(-1155 -874)" opacity="0.7" clip-path="url(#clip-path)">
    <g id="envelope" transform="translate(1155 876.198)">
      <g id="Group_437" data-name="Group 437">
        <path id="Path_514" data-name="Path 514" d="M15.446,3.008a1.889,1.889,0,0,0-.669-.421h-.019l-.172-.057h-.038c-.057-.019-.115-.019-.172-.038h-.038c-.076,0-.134-.019-.21-.019H1.892a.784.784,0,0,0-.21.019H1.644a.558.558,0,0,0-.172.038H1.434l-.172.057H1.243a2.2,2.2,0,0,0-.669.421c-.019,0-.019.019-.038.038L.478,3.1c-.019.038-.057.057-.076.1l-.038.038a.019.019,0,0,1-.019.019A1.879,1.879,0,0,0,0,4.327V12.2a1.806,1.806,0,0,0,.516,1.281c0,.019.019.019.019.038a1.849,1.849,0,0,0,1.319.554H14.127A1.893,1.893,0,0,0,16,12.2V4.327A1.849,1.849,0,0,0,15.446,3.008ZM1.7,3.448a.529.529,0,0,1,.172-.019H14.127a.529.529,0,0,1,.172.019l.172.057-2.886,2.37L8.354,8.495l-.019.019a.518.518,0,0,1-.65,0L4.435,5.876,1.529,3.505ZM15.025,12.2a.867.867,0,0,1-.268.631.911.911,0,0,1-.631.268H1.892a.867.867,0,0,1-.631-.268l-.019-.019A.85.85,0,0,1,.994,12.2V4.346L3.823,6.64,5.6,8.093,2.81,10.75a.487.487,0,0,0,.669.707L6.366,8.7l.707.573A1.37,1.37,0,0,0,8.01,9.6a1.419,1.419,0,0,0,.937-.344l.019-.019.688-.554,2.906,2.772a.487.487,0,1,0,.669-.707l-2.81-2.676L12.2,6.64l2.829-2.294Z" transform="translate(0 -2.473)" fill="#191919"/>
      </g>
    </g>
  </g>
</svg>
