<svg xmlns="http://www.w3.org/2000/svg" xmlns:xlink="http://www.w3.org/1999/xlink" width="17" height="17" viewBox="0 0 17 17">
  <defs>
    <clipPath id="clip-path">
      <rect id="Rectangle_2050" data-name="Rectangle 2050" width="17" height="17" transform="translate(1155 926)" fill="#191919" stroke="#707070" stroke-width="1"/>
    </clipPath>
  </defs>
  <g id="icon-location" transform="translate(-1155 -926)" opacity="0.7" clip-path="url(#clip-path)">
    <g id="pin" transform="translate(1156.959 926)">
      <g id="Group_438" data-name="Group 438" transform="translate(0)">
        <path id="Path_515" data-name="Path 515" d="M10.754,19.139a.672.672,0,0,1-.423-.149,22.559,22.559,0,0,1-3.035-3.1,16.627,16.627,0,0,1-2.1-3.26A9.218,9.218,0,0,1,4.213,8.68a6.541,6.541,0,1,1,13.081,0,9.218,9.218,0,0,1-.983,3.952,16.627,16.627,0,0,1-2.1,3.26,22.414,22.414,0,0,1-3.035,3.1A.663.663,0,0,1,10.754,19.139Zm0-15.653A5.2,5.2,0,0,0,5.559,8.68c0,2.415,1.514,4.795,2.785,6.367a22.269,22.269,0,0,0,2.41,2.531,22.314,22.314,0,0,0,2.427-2.552c1.262-1.565,2.768-3.938,2.768-6.346A5.2,5.2,0,0,0,10.754,3.485Z" transform="translate(-4.213 -2.139)" fill="#191919"/>
      </g>
      <g id="Group_439" data-name="Group 439" transform="translate(3.179 3.204)">
        <path id="Path_516" data-name="Path 516" d="M10.941,12.256a3.351,3.351,0,1,1,1.309-.264A3.355,3.355,0,0,1,10.941,12.256Zm0-5.378a2.016,2.016,0,1,0,2.016,2.016,2.018,2.018,0,0,0-2.016-2.016Z" transform="translate(-7.579 -5.531)" fill="#191919"/>
      </g>
    </g>
  </g>
</svg>
